# xmcd CD database file
#
# Track frame offsets:
#	150
#	21587
#	48350
#	80465
#	107725
#	141985
#	162310
#	191462
#	215282
#	237375
#
# Disc length: 3674 seconds
#
# Revision: 0
# Processed by: cddbd v1.5.2PL0 Copyright (c) Steve Scherf et al.
# Submitted via: CDex 1.51
#
DISCID=890e580a
DTITLE=Nigel Clark - Grand Hotel Europa
DYEAR=2001
DGENRE=Jazz
TTITLE0=East of the Sun
TTITLE1=Grand Hotel Europa
TTITLE2=Dolphin Dance
TTITLE3=Sakura Samba
TTITLE4=Once I Loved
TTITLE5=In Another Moment
TTITLE6=Island Dance
TTITLE7=Caso De Verao (A Summer Affair)
TTITLE8=How Deep is the Ocean?
TTITLE9=You Are Too Beautiful
EXTD=YEAR: 2001
EXTT0=
EXTT1=
EXTT2=
EXTT3=
EXTT4=
EXTT5=
EXTT6=
EXTT7=
EXTT8=
EXTT9=
PLAYORDER=
